<?xml version="1.0" standalone="no"?>
<!DOCTYPE svg PUBLIC "-//W3C//DTD SVG 20010904//EN"
 "http://www.w3.org/TR/2001/REC-SVG-20010904/DTD/svg10.dtd">
<svg version="1.0" xmlns="http://www.w3.org/2000/svg"
 width="320.000000pt" height="320.000000pt" viewBox="0 0 320.000000 320.000000"
 preserveAspectRatio="xMidYMid meet">
<metadata>
Created by potrace 1.11, written by Peter Selinger 2001-2013
</metadata>
<g transform="translate(0.000000,320.000000) scale(0.100000,-0.100000)"
fill="#000000" stroke="none">
<path d="M650 1646 l0 -1236 185 0 185 0 0 474 0 474 51 21 c135 58 175 63
599 71 356 7 403 9 473 28 228 62 390 214 464 437 25 74 27 93 28 250 0 151
-3 178 -23 245 -37 116 -79 187 -162 271 -85 86 -172 134 -305 171 -78 22 -94
22 -787 26 l-708 3 0 -1235z m1426 841 c74 -25 129 -69 161 -129 26 -50 28
-60 28 -183 0 -123 -2 -133 -29 -188 -34 -71 -94 -118 -181 -143 -50 -14 -124
-19 -440 -24 -400 -8 -432 -11 -543 -60 -25 -11 -46 -20 -48 -20 -2 0 -4 174
-4 386 l0 385 503 -3 c439 -3 508 -6 553 -21z"/>
</g>
</svg>
