<?xml version="1.0" standalone="no"?>
<!DOCTYPE svg PUBLIC "-//W3C//DTD SVG 20010904//EN"
 "http://www.w3.org/TR/2001/REC-SVG-20010904/DTD/svg10.dtd">
<svg version="1.0" xmlns="http://www.w3.org/2000/svg"
 width="320.000000pt" height="320.000000pt" viewBox="0 0 320.000000 320.000000"
 preserveAspectRatio="xMidYMid meet">
<metadata>
Created by potrace 1.11, written by Peter Selinger 2001-2013
</metadata>
<g transform="translate(0.000000,320.000000) scale(0.100000,-0.100000)"
fill="#000000" stroke="none">
<path d="M1070 2840 c-85 -4 -168 -13 -185 -19 -53 -21 -97 -62 -118 -110 -25
-54 -23 54 -19 -1282 l2 -956 23 -33 c36 -53 88 -75 182 -74 96 0 151 24 186
81 l24 38 -4 373 -3 372 198 0 c234 0 444 14 529 36 255 65 477 295 552 574
25 91 25 348 0 440 -76 286 -298 473 -647 546 -89 18 -477 26 -720 14z m643
-375 c176 -37 293 -139 333 -287 49 -187 -42 -420 -201 -513 -81 -48 -142 -57
-416 -62 l-256 -5 -6 77 c-4 43 -7 242 -7 442 l0 363 243 0 c172 0 262 -4 310
-15z"/>
</g>
</svg>
